<svg width="89" height="22" viewBox="0 0 89 22" fill="none" xmlns="http://www.w3.org/2000/svg">
<path d="M5.36133 9.98047C5.36133 10.125 5.35547 10.2383 5.34375 10.3203C5.33203 10.4023 5.3125 10.4609 5.28516 10.4961C5.26172 10.5312 5.23047 10.5469 5.19141 10.543C5.15625 10.5391 5.10938 10.5234 5.05078 10.4961L0.556641 8.25781C0.501953 8.22656 0.460938 8.16211 0.433594 8.06445C0.410156 7.96289 0.398438 7.8125 0.398438 7.61328C0.398438 7.51172 0.402344 7.42383 0.410156 7.34961C0.417969 7.27148 0.427734 7.20898 0.439453 7.16211C0.451172 7.11133 0.466797 7.07227 0.486328 7.04492C0.509766 7.01367 0.535156 6.99023 0.5625 6.97461L5.05078 4.74805C5.16406 4.69336 5.24414 4.70508 5.29102 4.7832C5.33789 4.85742 5.36133 5.01172 5.36133 5.24609C5.36133 5.40625 5.35742 5.5332 5.34961 5.62695C5.3457 5.7207 5.33594 5.79492 5.32031 5.84961C5.30469 5.9043 5.2832 5.94336 5.25586 5.9668C5.22852 5.99023 5.19141 6.01367 5.14453 6.03711L1.76953 7.61914L5.08008 9.1543C5.13867 9.18164 5.18555 9.20898 5.2207 9.23633C5.25977 9.26367 5.28906 9.30664 5.30859 9.36523C5.32812 9.41992 5.3418 9.49609 5.34961 9.59375C5.35742 9.6875 5.36133 9.81641 5.36133 9.98047ZM11.0566 4.05078C11.0566 4.16797 11.0508 4.26758 11.0391 4.34961C11.0312 4.42773 11.0156 4.49023 10.9922 4.53711C10.9727 4.58398 10.9492 4.61914 10.9219 4.64258C10.8945 4.66602 10.8633 4.67773 10.8281 4.67773H8.34961V6.7168H10.6758C10.7109 6.7168 10.7422 6.72656 10.7695 6.74609C10.7969 6.76562 10.8203 6.79883 10.8398 6.8457C10.8633 6.89258 10.8789 6.95508 10.8867 7.0332C10.8984 7.11133 10.9043 7.20898 10.9043 7.32617C10.9043 7.44336 10.8984 7.54102 10.8867 7.61914C10.8789 7.69727 10.8633 7.76172 10.8398 7.8125C10.8203 7.86328 10.7969 7.90039 10.7695 7.92383C10.7422 7.94336 10.7109 7.95312 10.6758 7.95312H8.34961V10.7773C8.34961 10.8203 8.33789 10.8574 8.31445 10.8887C8.29102 10.9199 8.24805 10.9473 8.18555 10.9707C8.12695 10.9902 8.04883 11.0059 7.95117 11.0176C7.85352 11.0293 7.72852 11.0352 7.57617 11.0352C7.42773 11.0352 7.30273 11.0293 7.20117 11.0176C7.10352 11.0059 7.02539 10.9902 6.9668 10.9707C6.9082 10.9473 6.86523 10.9199 6.83789 10.8887C6.81445 10.8574 6.80273 10.8203 6.80273 10.7773V3.9043C6.80273 3.73242 6.8457 3.60938 6.93164 3.53516C7.02148 3.45703 7.13086 3.41797 7.25977 3.41797H10.8281C10.8633 3.41797 10.8945 3.42969 10.9219 3.45312C10.9492 3.47266 10.9727 3.50781 10.9922 3.55859C11.0156 3.60547 11.0312 3.66992 11.0391 3.75195C11.0508 3.83398 11.0566 3.93359 11.0566 4.05078ZM16.8047 10.3965C16.8047 10.5098 16.7988 10.6055 16.7871 10.6836C16.7793 10.7578 16.7656 10.8184 16.7461 10.8652C16.7266 10.9121 16.7012 10.9473 16.6699 10.9707C16.6426 10.9902 16.6113 11 16.5762 11H12.7676C12.6387 11 12.5293 10.9629 12.4395 10.8887C12.3535 10.8105 12.3105 10.6855 12.3105 10.5137V3.9043C12.3105 3.73242 12.3535 3.60938 12.4395 3.53516C12.5293 3.45703 12.6387 3.41797 12.7676 3.41797H16.5527C16.5879 3.41797 16.6191 3.42773 16.6465 3.44727C16.6738 3.4668 16.6973 3.50195 16.7168 3.55273C16.7363 3.59961 16.75 3.66211 16.7578 3.74023C16.7695 3.81445 16.7754 3.91016 16.7754 4.02734C16.7754 4.13672 16.7695 4.23047 16.7578 4.30859C16.75 4.38281 16.7363 4.44336 16.7168 4.49023C16.6973 4.53711 16.6738 4.57227 16.6465 4.5957C16.6191 4.61523 16.5879 4.625 16.5527 4.625H13.8457V6.47656H16.1367C16.1719 6.47656 16.2031 6.48828 16.2305 6.51172C16.2617 6.53125 16.2871 6.56445 16.3066 6.61133C16.3262 6.6543 16.3398 6.71484 16.3477 6.79297C16.3594 6.86719 16.3652 6.95898 16.3652 7.06836C16.3652 7.18164 16.3594 7.27539 16.3477 7.34961C16.3398 7.42383 16.3262 7.48438 16.3066 7.53125C16.2871 7.57422 16.2617 7.60547 16.2305 7.625C16.2031 7.64453 16.1719 7.6543 16.1367 7.6543H13.8457V9.79297H16.5762C16.6113 9.79297 16.6426 9.80469 16.6699 9.82812C16.7012 9.84766 16.7266 9.88086 16.7461 9.92773C16.7656 9.97461 16.7793 10.0371 16.7871 10.1152C16.7988 10.1895 16.8047 10.2832 16.8047 10.3965ZM22.3359 10.3555C22.3359 10.4727 22.3301 10.5723 22.3184 10.6543C22.3105 10.7324 22.2969 10.7988 22.2773 10.8535C22.2578 10.9043 22.2324 10.9414 22.2012 10.9648C22.1738 10.9883 22.1406 11 22.1016 11H18.627C18.498 11 18.3887 10.9629 18.2988 10.8887C18.2129 10.8105 18.1699 10.6855 18.1699 10.5137V3.62891C18.1699 3.58984 18.1816 3.55469 18.2051 3.52344C18.2324 3.49219 18.2754 3.4668 18.334 3.44727C18.3926 3.42773 18.4707 3.41211 18.5684 3.40039C18.6699 3.38867 18.7949 3.38281 18.9434 3.38281C19.0957 3.38281 19.2207 3.38867 19.3184 3.40039C19.416 3.41211 19.4941 3.42773 19.5527 3.44727C19.6113 3.4668 19.6523 3.49219 19.6758 3.52344C19.7031 3.55469 19.7168 3.58984 19.7168 3.62891V9.72852H22.1016C22.1406 9.72852 22.1738 9.74023 22.2012 9.76367C22.2324 9.7832 22.2578 9.81836 22.2773 9.86914C22.2969 9.91602 22.3105 9.98047 22.3184 10.0625C22.3301 10.1406 22.3359 10.2383 22.3359 10.3555ZM24.791 10.7891C24.791 10.8281 24.7773 10.8633 24.75 10.8945C24.7266 10.9258 24.6855 10.9512 24.627 10.9707C24.5684 10.9902 24.4902 11.0059 24.3926 11.0176C24.2949 11.0293 24.1699 11.0352 24.0176 11.0352C23.8691 11.0352 23.7441 11.0293 23.6426 11.0176C23.5449 11.0059 23.4668 10.9902 23.4082 10.9707C23.3496 10.9512 23.3066 10.9258 23.2793 10.8945C23.2559 10.8633 23.2441 10.8281 23.2441 10.7891V3.62891C23.2441 3.58984 23.2559 3.55469 23.2793 3.52344C23.3066 3.49219 23.3496 3.4668 23.4082 3.44727C23.4707 3.42773 23.5508 3.41211 23.6484 3.40039C23.7461 3.38867 23.8691 3.38281 24.0176 3.38281C24.1699 3.38281 24.2949 3.38867 24.3926 3.40039C24.4902 3.41211 24.5684 3.42773 24.627 3.44727C24.6855 3.4668 24.7266 3.49219 24.75 3.52344C24.7773 3.55469 24.791 3.58984 24.791 3.62891V10.7891ZM31.6348 5.7207C31.6348 6.14648 31.5684 6.52344 31.4355 6.85156C31.3027 7.17969 31.1094 7.45703 30.8555 7.68359C30.6016 7.90625 30.2891 8.07617 29.918 8.19336C29.5508 8.31055 29.1172 8.36914 28.6172 8.36914H27.9844V10.7891C27.9844 10.8281 27.9707 10.8633 27.9434 10.8945C27.9199 10.9258 27.8789 10.9512 27.8203 10.9707C27.7617 10.9902 27.6836 11.0059 27.5859 11.0176C27.4883 11.0293 27.3633 11.0352 27.2109 11.0352C27.0625 11.0352 26.9375 11.0293 26.8359 11.0176C26.7383 11.0059 26.6602 10.9902 26.6016 10.9707C26.543 10.9512 26.502 10.9258 26.4785 10.8945C26.4551 10.8633 26.4434 10.8281 26.4434 10.7891V3.96875C26.4434 3.78516 26.4902 3.64844 26.584 3.55859C26.6816 3.46484 26.8086 3.41797 26.9648 3.41797H28.752C28.9316 3.41797 29.1016 3.42578 29.2617 3.44141C29.4258 3.45312 29.6211 3.48242 29.8477 3.5293C30.0742 3.57227 30.3027 3.6543 30.5332 3.77539C30.7676 3.89648 30.9668 4.05078 31.1309 4.23828C31.2949 4.42188 31.4199 4.63867 31.5059 4.88867C31.5918 5.13477 31.6348 5.41211 31.6348 5.7207ZM30.0234 5.83203C30.0234 5.56641 29.9766 5.34766 29.8828 5.17578C29.7891 5.00391 29.6738 4.87695 29.5371 4.79492C29.4004 4.71289 29.2559 4.66211 29.1035 4.64258C28.9551 4.61914 28.8008 4.60742 28.6406 4.60742H27.9844V7.17969H28.6758C28.9219 7.17969 29.127 7.14648 29.291 7.08008C29.459 7.01367 29.5957 6.92188 29.7012 6.80469C29.8066 6.68359 29.8867 6.54102 29.9414 6.37695C29.9961 6.20898 30.0234 6.02734 30.0234 5.83203ZM37.3242 10.3965C37.3242 10.5098 37.3184 10.6055 37.3066 10.6836C37.2988 10.7578 37.2852 10.8184 37.2656 10.8652C37.2461 10.9121 37.2207 10.9473 37.1895 10.9707C37.1621 10.9902 37.1309 11 37.0957 11H33.2871C33.1582 11 33.0488 10.9629 32.959 10.8887C32.873 10.8105 32.8301 10.6855 32.8301 10.5137V3.9043C32.8301 3.73242 32.873 3.60938 32.959 3.53516C33.0488 3.45703 33.1582 3.41797 33.2871 3.41797H37.0723C37.1074 3.41797 37.1387 3.42773 37.166 3.44727C37.1934 3.4668 37.2168 3.50195 37.2363 3.55273C37.2559 3.59961 37.2695 3.66211 37.2773 3.74023C37.2891 3.81445 37.2949 3.91016 37.2949 4.02734C37.2949 4.13672 37.2891 4.23047 37.2773 4.30859C37.2695 4.38281 37.2559 4.44336 37.2363 4.49023C37.2168 4.53711 37.1934 4.57227 37.166 4.5957C37.1387 4.61523 37.1074 4.625 37.0723 4.625H34.3652V6.47656H36.6562C36.6914 6.47656 36.7227 6.48828 36.75 6.51172C36.7812 6.53125 36.8066 6.56445 36.8262 6.61133C36.8457 6.6543 36.8594 6.71484 36.8672 6.79297C36.8789 6.86719 36.8848 6.95898 36.8848 7.06836C36.8848 7.18164 36.8789 7.27539 36.8672 7.34961C36.8594 7.42383 36.8457 7.48438 36.8262 7.53125C36.8066 7.57422 36.7812 7.60547 36.75 7.625C36.7227 7.64453 36.6914 7.6543 36.6562 7.6543H34.3652V9.79297H37.0957C37.1309 9.79297 37.1621 9.80469 37.1895 9.82812C37.2207 9.84766 37.2461 9.88086 37.2656 9.92773C37.2852 9.97461 37.2988 10.0371 37.3066 10.1152C37.3184 10.1895 37.3242 10.2832 37.3242 10.3965ZM44.1797 8.72656C44.1797 8.99609 44.1426 9.24023 44.0684 9.45898C43.9941 9.67773 43.8906 9.87109 43.7578 10.0391C43.6289 10.207 43.4727 10.3516 43.2891 10.4727C43.1094 10.5938 42.9102 10.6934 42.6914 10.7715C42.4727 10.8496 42.2383 10.9082 41.9883 10.9473C41.7422 10.9824 41.4668 11 41.1621 11H39.1465C39.0176 11 38.9082 10.9629 38.8184 10.8887C38.7324 10.8105 38.6895 10.6855 38.6895 10.5137V3.9043C38.6895 3.73242 38.7324 3.60938 38.8184 3.53516C38.9082 3.45703 39.0176 3.41797 39.1465 3.41797H41.0508C41.5156 3.41797 41.9082 3.45703 42.2285 3.53516C42.5527 3.61328 42.8242 3.73242 43.043 3.89258C43.2656 4.04883 43.4355 4.24805 43.5527 4.49023C43.6699 4.73242 43.7285 5.01758 43.7285 5.3457C43.7285 5.5293 43.7051 5.70312 43.6582 5.86719C43.6113 6.02734 43.543 6.17383 43.4531 6.30664C43.3633 6.43945 43.252 6.55664 43.1191 6.6582C42.9902 6.75977 42.8418 6.8418 42.6738 6.9043C42.8887 6.94336 43.0859 7.01172 43.2656 7.10938C43.4492 7.20703 43.6074 7.33398 43.7402 7.49023C43.877 7.64258 43.9844 7.82227 44.0625 8.0293C44.1406 8.23633 44.1797 8.46875 44.1797 8.72656ZM42.1875 5.5332C42.1875 5.38086 42.1641 5.24414 42.1172 5.12305C42.0703 5.00195 42 4.90234 41.9062 4.82422C41.8125 4.74219 41.6934 4.67969 41.5488 4.63672C41.4082 4.59375 41.2188 4.57227 40.9805 4.57227H40.2012V6.54102H41.0625C41.2852 6.54102 41.4629 6.51562 41.5957 6.46484C41.7285 6.41016 41.8379 6.33789 41.9238 6.24805C42.0137 6.1543 42.0801 6.04688 42.123 5.92578C42.166 5.80078 42.1875 5.66992 42.1875 5.5332ZM42.5801 8.7793C42.5801 8.60352 42.5508 8.44727 42.4922 8.31055C42.4336 8.16992 42.3477 8.05273 42.2344 7.95898C42.1211 7.86523 41.9766 7.79297 41.8008 7.74219C41.625 7.69141 41.3965 7.66602 41.1152 7.66602H40.2012V9.82227H41.3145C41.5293 9.82227 41.709 9.80078 41.8535 9.75781C42.002 9.71094 42.1289 9.64453 42.2344 9.55859C42.3438 9.46875 42.4277 9.35938 42.4863 9.23047C42.5488 9.09766 42.5801 8.94727 42.5801 8.7793ZM51.6035 8.17578C51.6035 8.64062 51.5352 9.05664 51.3984 9.42383C51.2617 9.79102 51.0605 10.1016 50.7949 10.3555C50.5293 10.6094 50.2012 10.8027 49.8105 10.9355C49.4199 11.0684 48.9707 11.1348 48.4629 11.1348C47.9863 11.1348 47.5586 11.0762 47.1797 10.959C46.8008 10.8379 46.4805 10.6562 46.2188 10.4141C45.957 10.1719 45.7559 9.87109 45.6152 9.51172C45.4785 9.14844 45.4102 8.72461 45.4102 8.24023V3.62891C45.4102 3.58984 45.4219 3.55469 45.4453 3.52344C45.4688 3.49219 45.5098 3.4668 45.5684 3.44727C45.6309 3.42773 45.7109 3.41211 45.8086 3.40039C45.9062 3.38867 46.0312 3.38281 46.1836 3.38281C46.332 3.38281 46.4551 3.38867 46.5527 3.40039C46.6504 3.41211 46.7285 3.42773 46.7871 3.44727C46.8457 3.4668 46.8867 3.49219 46.9102 3.52344C46.9375 3.55469 46.9512 3.58984 46.9512 3.62891V8.10547C46.9512 8.40625 46.9883 8.66797 47.0625 8.89062C47.1367 9.10938 47.2422 9.29102 47.3789 9.43555C47.5195 9.58008 47.6855 9.68945 47.877 9.76367C48.0723 9.83398 48.2891 9.86914 48.5273 9.86914C48.7695 9.86914 48.9863 9.83203 49.1777 9.75781C49.3691 9.68359 49.5312 9.57617 49.6641 9.43555C49.7969 9.29102 49.8984 9.11523 49.9688 8.9082C50.043 8.69727 50.0801 8.45898 50.0801 8.19336V3.62891C50.0801 3.58984 50.0918 3.55469 50.1152 3.52344C50.1387 3.49219 50.1797 3.4668 50.2383 3.44727C50.2969 3.42773 50.375 3.41211 50.4727 3.40039C50.5742 3.38867 50.6992 3.38281 50.8477 3.38281C50.9961 3.38281 51.1172 3.38867 51.2109 3.40039C51.3086 3.41211 51.3867 3.42773 51.4453 3.44727C51.5039 3.4668 51.5449 3.49219 51.5684 3.52344C51.5918 3.55469 51.6035 3.58984 51.6035 3.62891V8.17578ZM57.75 10.3965C57.75 10.5098 57.7441 10.6055 57.7324 10.6836C57.7246 10.7578 57.7109 10.8184 57.6914 10.8652C57.6719 10.9121 57.6465 10.9473 57.6152 10.9707C57.5879 10.9902 57.5566 11 57.5215 11H53.7129C53.584 11 53.4746 10.9629 53.3848 10.8887C53.2988 10.8105 53.2559 10.6855 53.2559 10.5137V3.9043C53.2559 3.73242 53.2988 3.60938 53.3848 3.53516C53.4746 3.45703 53.584 3.41797 53.7129 3.41797H57.498C57.5332 3.41797 57.5645 3.42773 57.5918 3.44727C57.6191 3.4668 57.6426 3.50195 57.6621 3.55273C57.6816 3.59961 57.6953 3.66211 57.7031 3.74023C57.7148 3.81445 57.7207 3.91016 57.7207 4.02734C57.7207 4.13672 57.7148 4.23047 57.7031 4.30859C57.6953 4.38281 57.6816 4.44336 57.6621 4.49023C57.6426 4.53711 57.6191 4.57227 57.5918 4.5957C57.5645 4.61523 57.5332 4.625 57.498 4.625H54.791V6.47656H57.082C57.1172 6.47656 57.1484 6.48828 57.1758 6.51172C57.207 6.53125 57.2324 6.56445 57.252 6.61133C57.2715 6.6543 57.2852 6.71484 57.293 6.79297C57.3047 6.86719 57.3105 6.95898 57.3105 7.06836C57.3105 7.18164 57.3047 7.27539 57.293 7.34961C57.2852 7.42383 57.2715 7.48438 57.252 7.53125C57.2324 7.57422 57.207 7.60547 57.1758 7.625C57.1484 7.64453 57.1172 7.6543 57.082 7.6543H54.791V9.79297H57.5215C57.5566 9.79297 57.5879 9.80469 57.6152 9.82812C57.6465 9.84766 57.6719 9.88086 57.6914 9.92773C57.7109 9.97461 57.7246 10.0371 57.7324 10.1152C57.7441 10.1895 57.75 10.2832 57.75 10.3965ZM65.3672 10.4609C65.3672 10.5508 65.3516 10.6309 65.3203 10.7012C65.2891 10.7715 65.2461 10.8301 65.1914 10.877C65.1406 10.9238 65.0781 10.959 65.0039 10.9824C64.9336 11.002 64.8613 11.0117 64.7871 11.0117H64.1309C63.9941 11.0117 63.875 10.998 63.7734 10.9707C63.6758 10.9434 63.584 10.8945 63.498 10.8242C63.416 10.75 63.3359 10.6523 63.2578 10.5312C63.1797 10.4062 63.0918 10.2461 62.9941 10.0508L61.1074 6.50586C60.998 6.29492 60.8867 6.06836 60.7734 5.82617C60.6602 5.58008 60.5586 5.3418 60.4688 5.11133H60.457C60.4727 5.39258 60.4844 5.67383 60.4922 5.95508C60.5 6.23242 60.5039 6.51953 60.5039 6.81641V10.7832C60.5039 10.8223 60.4922 10.8574 60.4688 10.8887C60.4492 10.9199 60.4121 10.9473 60.3574 10.9707C60.3066 10.9902 60.2363 11.0059 60.1465 11.0176C60.0566 11.0293 59.9414 11.0352 59.8008 11.0352C59.6641 11.0352 59.5508 11.0293 59.4609 11.0176C59.3711 11.0059 59.3008 10.9902 59.25 10.9707C59.1992 10.9473 59.1641 10.9199 59.1445 10.8887C59.125 10.8574 59.1152 10.8223 59.1152 10.7832V3.96875C59.1152 3.78516 59.168 3.64844 59.2734 3.55859C59.3828 3.46484 59.5156 3.41797 59.6719 3.41797H60.498C60.6465 3.41797 60.7715 3.43164 60.873 3.45898C60.9746 3.48242 61.0645 3.52344 61.1426 3.58203C61.2246 3.64062 61.3008 3.72266 61.3711 3.82812C61.4414 3.92969 61.5137 4.05664 61.5879 4.20898L63.0645 6.98047C63.1504 7.14844 63.2344 7.31445 63.3164 7.47852C63.4023 7.63867 63.4844 7.80078 63.5625 7.96484C63.6406 8.125 63.7168 8.2832 63.791 8.43945C63.8652 8.5957 63.9375 8.75195 64.0078 8.9082H64.0137C64.002 8.63477 63.9922 8.34961 63.9844 8.05273C63.9805 7.75586 63.9785 7.47266 63.9785 7.20312V3.64648C63.9785 3.60742 63.9902 3.57227 64.0137 3.54102C64.0371 3.50977 64.0762 3.48242 64.1309 3.45898C64.1855 3.43555 64.2578 3.41992 64.3477 3.41211C64.4375 3.40039 64.5527 3.39453 64.6934 3.39453C64.8262 3.39453 64.9375 3.40039 65.0273 3.41211C65.1172 3.41992 65.1855 3.43555 65.2324 3.45898C65.2832 3.48242 65.3184 3.50977 65.3379 3.54102C65.3574 3.57227 65.3672 3.60742 65.3672 3.64648V10.4609ZM73.8457 7.12109C73.8457 7.75 73.7676 8.3125 73.6113 8.80859C73.4551 9.30469 73.2227 9.72656 72.9141 10.0742C72.6055 10.418 72.2227 10.6816 71.7656 10.8652C71.3125 11.0449 70.7871 11.1348 70.1895 11.1348C69.5996 11.1348 69.084 11.0586 68.6426 10.9062C68.2051 10.75 67.8398 10.5137 67.5469 10.1973C67.2539 9.88086 67.0332 9.47852 66.8848 8.99023C66.7402 8.50195 66.668 7.92383 66.668 7.25586C66.668 6.64258 66.7461 6.0918 66.9023 5.60352C67.0586 5.11133 67.291 4.69336 67.5996 4.34961C67.9082 4.00586 68.2891 3.74219 68.7422 3.55859C69.1992 3.375 69.7285 3.2832 70.3301 3.2832C70.9043 3.2832 71.4102 3.35938 71.8477 3.51172C72.2891 3.66406 72.6562 3.89844 72.9492 4.21484C73.2461 4.53125 73.4688 4.93164 73.6172 5.41602C73.7695 5.89648 73.8457 6.46484 73.8457 7.12109ZM72.2285 7.20312C72.2285 6.80469 72.1973 6.44336 72.1348 6.11914C72.0723 5.79102 71.9648 5.51172 71.8125 5.28125C71.6641 5.04688 71.4648 4.86719 71.2148 4.74219C70.9648 4.61328 70.6523 4.54883 70.2773 4.54883C69.8984 4.54883 69.582 4.62109 69.3281 4.76562C69.0742 4.90625 68.8691 5.0957 68.7129 5.33398C68.5566 5.57227 68.4453 5.85156 68.3789 6.17188C68.3164 6.48828 68.2852 6.82422 68.2852 7.17969C68.2852 7.59375 68.3164 7.9668 68.3789 8.29883C68.4414 8.62695 68.5469 8.9082 68.6953 9.14258C68.8438 9.37695 69.043 9.55664 69.293 9.68164C69.543 9.80273 69.8574 9.86328 70.2363 9.86328C70.6152 9.86328 70.9316 9.79297 71.1855 9.65234C71.4395 9.51172 71.6445 9.32031 71.8008 9.07812C71.957 8.83594 72.0664 8.55469 72.1289 8.23438C72.1953 7.91016 72.2285 7.56641 72.2285 7.20312ZM78.5156 12.5176C78.4961 12.5684 78.4707 12.6094 78.4395 12.6406C78.4082 12.6719 78.3633 12.6973 78.3047 12.7168C78.25 12.7363 78.1797 12.75 78.0938 12.7578C78.0117 12.7695 77.9062 12.7754 77.7773 12.7754C77.6172 12.7754 77.4863 12.7676 77.3848 12.752C77.2832 12.7363 77.2051 12.7129 77.1504 12.6816C77.0996 12.6504 77.0703 12.6094 77.0625 12.5586C77.0547 12.5117 77.0625 12.4551 77.0859 12.3887L80.5898 2.55078C80.6055 2.5 80.6289 2.45898 80.6602 2.42773C80.6914 2.39258 80.7344 2.36523 80.7891 2.3457C80.8438 2.32617 80.9141 2.3125 81 2.30469C81.0898 2.29297 81.1973 2.28711 81.3223 2.28711C81.4863 2.28711 81.6172 2.29492 81.7148 2.31055C81.8164 2.32617 81.8926 2.34961 81.9434 2.38086C81.9941 2.41211 82.0234 2.45312 82.0312 2.50391C82.0391 2.55078 82.0332 2.60742 82.0137 2.67383L78.5156 12.5176ZM87.7617 7.63086C87.7617 7.73242 87.7578 7.82031 87.75 7.89453C87.7422 7.96875 87.7305 8.03125 87.7148 8.08203C87.7031 8.13281 87.6855 8.17383 87.6621 8.20508C87.6426 8.23242 87.6191 8.25195 87.5918 8.26367L83.0977 10.4902C83.043 10.5176 82.9961 10.5293 82.957 10.5254C82.918 10.5215 82.8848 10.5 82.8574 10.4609C82.834 10.4219 82.8164 10.3652 82.8047 10.291C82.7969 10.2129 82.793 10.1152 82.793 9.99805C82.793 9.83789 82.7949 9.71094 82.7988 9.61719C82.8066 9.52344 82.8184 9.44922 82.834 9.39453C82.8496 9.33984 82.8711 9.30078 82.8984 9.27734C82.9258 9.25 82.9629 9.22656 83.0098 9.20703L86.3848 7.625L83.0742 6.08984C83.0117 6.0625 82.9609 6.03516 82.9219 6.00781C82.8867 5.98047 82.8594 5.93945 82.8398 5.88477C82.8203 5.82617 82.8066 5.75 82.7988 5.65625C82.7949 5.55859 82.793 5.42773 82.793 5.26367C82.793 5.11914 82.7969 5.00586 82.8047 4.92383C82.8164 4.8418 82.834 4.7832 82.8574 4.74805C82.8848 4.71289 82.918 4.69727 82.957 4.70117C82.9961 4.70508 83.043 4.7207 83.0977 4.74805L87.5977 6.99219C87.6484 7.01562 87.6875 7.07812 87.7148 7.17969C87.7461 7.28125 87.7617 7.43164 87.7617 7.63086Z" fill="#9400D3"/>
<path d="M30.0635 14.5273H31.9385V14.708C31.766 14.721 31.652 14.752 31.5967 14.8008C31.5446 14.8496 31.5186 14.9196 31.5186 15.0107C31.5186 15.1117 31.5462 15.2337 31.6016 15.377L32.5586 17.9502L33.5205 15.8555L33.2666 15.1963C33.1885 15.001 33.0859 14.8659 32.959 14.791C32.8874 14.7454 32.7539 14.7178 32.5586 14.708V14.5273H34.6875V14.708C34.4531 14.7178 34.2871 14.7601 34.1895 14.835C34.1243 14.887 34.0918 14.9701 34.0918 15.084C34.0918 15.1491 34.1048 15.2158 34.1309 15.2842L35.1465 17.8525L36.0889 15.377C36.154 15.2012 36.1865 15.0612 36.1865 14.957C36.1865 14.8952 36.154 14.8398 36.0889 14.791C36.027 14.7422 35.9033 14.7145 35.7178 14.708V14.5273H37.1289V14.708C36.8457 14.7503 36.6374 14.9424 36.5039 15.2842L35.0098 19.1367H34.8096L33.6914 16.2803L32.3877 19.1367H32.207L30.7715 15.377C30.6771 15.1393 30.5843 14.9798 30.4932 14.8984C30.402 14.8138 30.2588 14.7503 30.0635 14.708V14.5273ZM38.291 16.2119C38.2878 16.876 38.4489 17.3968 38.7744 17.7744C39.0999 18.152 39.4824 18.3408 39.9219 18.3408C40.2148 18.3408 40.4688 18.2611 40.6836 18.1016C40.9017 17.9388 41.084 17.6621 41.2305 17.2715L41.3818 17.3691C41.3135 17.8151 41.1149 18.222 40.7861 18.5898C40.4574 18.9544 40.0456 19.1367 39.5508 19.1367C39.0137 19.1367 38.5531 18.9284 38.1689 18.5117C37.7881 18.0918 37.5977 17.5286 37.5977 16.8223C37.5977 16.0573 37.793 15.4616 38.1836 15.0352C38.5775 14.6055 39.0706 14.3906 39.6631 14.3906C40.1644 14.3906 40.5762 14.5566 40.8984 14.8887C41.2207 15.2174 41.3818 15.6585 41.3818 16.2119H38.291ZM38.291 15.9287H40.3613C40.3451 15.6423 40.3109 15.4404 40.2588 15.3232C40.1774 15.141 40.0553 14.9977 39.8926 14.8936C39.7331 14.7894 39.5654 14.7373 39.3896 14.7373C39.1195 14.7373 38.877 14.8431 38.6621 15.0547C38.4505 15.263 38.3268 15.5544 38.291 15.9287ZM43.208 15.2988C43.641 14.6966 44.1081 14.3955 44.6094 14.3955C45.0684 14.3955 45.4688 14.5924 45.8105 14.9863C46.1523 15.377 46.3232 15.9124 46.3232 16.5928C46.3232 17.387 46.0596 18.0267 45.5322 18.5117C45.0798 18.9284 44.5752 19.1367 44.0186 19.1367C43.7581 19.1367 43.4928 19.0895 43.2227 18.9951C42.9557 18.9007 42.6823 18.7591 42.4023 18.5703V13.9365C42.4023 13.4287 42.3893 13.1162 42.3633 12.999C42.3405 12.8818 42.3031 12.8021 42.251 12.7598C42.1989 12.7174 42.1338 12.6963 42.0557 12.6963C41.9645 12.6963 41.8506 12.7223 41.7139 12.7744L41.6455 12.6035L42.9883 12.0566H43.208V15.2988ZM43.208 15.6113V18.2871C43.374 18.4499 43.5449 18.5736 43.7207 18.6582C43.8997 18.7396 44.082 18.7803 44.2676 18.7803C44.5638 18.7803 44.8389 18.6175 45.0928 18.292C45.3499 17.9665 45.4785 17.4928 45.4785 16.8711C45.4785 16.2982 45.3499 15.8587 45.0928 15.5527C44.8389 15.2435 44.5492 15.0889 44.2236 15.0889C44.0511 15.0889 43.8786 15.1328 43.7061 15.2207C43.5758 15.2858 43.4098 15.416 43.208 15.6113ZM52.6416 18.4971C52.4235 18.7249 52.2103 18.8893 52.002 18.9902C51.7936 19.0879 51.569 19.1367 51.3281 19.1367C50.8398 19.1367 50.4134 18.9333 50.0488 18.5264C49.6842 18.1162 49.502 17.5905 49.502 16.9492C49.502 16.3079 49.7038 15.722 50.1074 15.1914C50.5111 14.6576 51.0303 14.3906 51.665 14.3906C52.0589 14.3906 52.3844 14.516 52.6416 14.7666V13.9414C52.6416 13.4303 52.6286 13.1162 52.6025 12.999C52.5798 12.8818 52.5423 12.8021 52.4902 12.7598C52.4382 12.7174 52.373 12.6963 52.2949 12.6963C52.2103 12.6963 52.098 12.7223 51.958 12.7744L51.8945 12.6035L53.2275 12.0566H53.4473V17.2275C53.4473 17.7516 53.4587 18.0723 53.4814 18.1895C53.5075 18.3034 53.5465 18.3831 53.5986 18.4287C53.654 18.4743 53.7174 18.4971 53.7891 18.4971C53.877 18.4971 53.9941 18.4694 54.1406 18.4141L54.1943 18.585L52.8662 19.1367H52.6416V18.4971ZM52.6416 18.1553V15.8506C52.6221 15.6292 52.5635 15.4274 52.4658 15.2451C52.3682 15.0628 52.238 14.9261 52.0752 14.835C51.9157 14.7406 51.7594 14.6934 51.6064 14.6934C51.32 14.6934 51.0645 14.8219 50.8398 15.0791C50.5436 15.4176 50.3955 15.9124 50.3955 16.5635C50.3955 17.221 50.5387 17.7256 50.8252 18.0771C51.1117 18.4255 51.4307 18.5996 51.7822 18.5996C52.0785 18.5996 52.3649 18.4515 52.6416 18.1553ZM55.2344 16.2119C55.2311 16.876 55.3923 17.3968 55.7178 17.7744C56.0433 18.152 56.4258 18.3408 56.8652 18.3408C57.1582 18.3408 57.4121 18.2611 57.627 18.1016C57.8451 17.9388 58.0273 17.6621 58.1738 17.2715L58.3252 17.3691C58.2568 17.8151 58.0583 18.222 57.7295 18.5898C57.4007 18.9544 56.9889 19.1367 56.4941 19.1367C55.957 19.1367 55.4964 18.9284 55.1123 18.5117C54.7314 18.0918 54.541 17.5286 54.541 16.8223C54.541 16.0573 54.7363 15.4616 55.127 15.0352C55.5208 14.6055 56.014 14.3906 56.6064 14.3906C57.1077 14.3906 57.5195 14.5566 57.8418 14.8887C58.1641 15.2174 58.3252 15.6585 58.3252 16.2119H55.2344ZM55.2344 15.9287H57.3047C57.2884 15.6423 57.2542 15.4404 57.2021 15.3232C57.1208 15.141 56.9987 14.9977 56.8359 14.8936C56.6764 14.7894 56.5088 14.7373 56.333 14.7373C56.0628 14.7373 55.8203 14.8431 55.6055 15.0547C55.3939 15.263 55.2702 15.5544 55.2344 15.9287ZM58.6963 14.5273H60.8008V14.708H60.6641C60.5371 14.708 60.4395 14.7389 60.3711 14.8008C60.306 14.8626 60.2734 14.9456 60.2734 15.0498C60.2734 15.1637 60.3076 15.2988 60.376 15.4551L61.416 17.9258L62.4609 15.3623C62.5358 15.18 62.5732 15.0417 62.5732 14.9473C62.5732 14.9017 62.5602 14.8643 62.5342 14.835C62.4984 14.7861 62.4528 14.7536 62.3975 14.7373C62.3421 14.7178 62.2298 14.708 62.0605 14.708V14.5273H63.5205V14.708C63.3512 14.721 63.234 14.7552 63.1689 14.8105C63.055 14.9082 62.9525 15.071 62.8613 15.2988L61.2744 19.1367H61.0742L59.4775 15.3623C59.4059 15.1865 59.3376 15.0612 59.2725 14.9863C59.2074 14.9082 59.1243 14.8431 59.0234 14.791C58.9681 14.7617 58.859 14.734 58.6963 14.708V14.5273ZM64.6777 16.2119C64.6745 16.876 64.8356 17.3968 65.1611 17.7744C65.4867 18.152 65.8691 18.3408 66.3086 18.3408C66.6016 18.3408 66.8555 18.2611 67.0703 18.1016C67.2884 17.9388 67.4707 17.6621 67.6172 17.2715L67.7686 17.3691C67.7002 17.8151 67.5016 18.222 67.1729 18.5898C66.8441 18.9544 66.4323 19.1367 65.9375 19.1367C65.4004 19.1367 64.9398 18.9284 64.5557 18.5117C64.1748 18.0918 63.9844 17.5286 63.9844 16.8223C63.9844 16.0573 64.1797 15.4616 64.5703 15.0352C64.9642 14.6055 65.4574 14.3906 66.0498 14.3906C66.5511 14.3906 66.9629 14.5566 67.2852 14.8887C67.6074 15.2174 67.7686 15.6585 67.7686 16.2119H64.6777ZM64.6777 15.9287H66.748C66.7318 15.6423 66.6976 15.4404 66.6455 15.3232C66.5641 15.141 66.4421 14.9977 66.2793 14.8936C66.1198 14.7894 65.9521 14.7373 65.7764 14.7373C65.5062 14.7373 65.2637 14.8431 65.0488 15.0547C64.8372 15.263 64.7135 15.5544 64.6777 15.9287ZM69.9072 12.0566V17.9893C69.9072 18.2692 69.9268 18.4548 69.9658 18.5459C70.0081 18.637 70.0716 18.707 70.1562 18.7559C70.2409 18.8014 70.3988 18.8242 70.6299 18.8242V19H68.4375V18.8242C68.6426 18.8242 68.7826 18.8031 68.8574 18.7607C68.9323 18.7184 68.9909 18.6484 69.0332 18.5508C69.0755 18.4531 69.0967 18.266 69.0967 17.9893V13.9268C69.0967 13.4222 69.0853 13.113 69.0625 12.999C69.0397 12.8818 69.0023 12.8021 68.9502 12.7598C68.9014 12.7174 68.8379 12.6963 68.7598 12.6963C68.6751 12.6963 68.5677 12.7223 68.4375 12.7744L68.3545 12.6035L69.6875 12.0566H69.9072ZM73.3398 14.3955C74.0169 14.3955 74.5605 14.6527 74.9707 15.167C75.319 15.6064 75.4932 16.111 75.4932 16.6807C75.4932 17.0811 75.3971 17.4863 75.2051 17.8965C75.013 18.3066 74.7477 18.6159 74.4092 18.8242C74.0739 19.0326 73.6995 19.1367 73.2861 19.1367C72.6123 19.1367 72.0768 18.8682 71.6797 18.3311C71.3444 17.8786 71.1768 17.3708 71.1768 16.8076C71.1768 16.3975 71.2777 15.9906 71.4795 15.5869C71.6846 15.18 71.9531 14.8805 72.2852 14.6885C72.6172 14.4932 72.9688 14.3955 73.3398 14.3955ZM73.1885 14.7129C73.016 14.7129 72.8418 14.765 72.666 14.8691C72.4935 14.9701 72.3535 15.1491 72.2461 15.4062C72.1387 15.6634 72.085 15.9938 72.085 16.3975C72.085 17.0485 72.2135 17.61 72.4707 18.082C72.7311 18.554 73.0729 18.79 73.4961 18.79C73.8118 18.79 74.0723 18.6598 74.2773 18.3994C74.4824 18.139 74.585 17.6914 74.585 17.0566C74.585 16.2624 74.4141 15.6374 74.0723 15.1816C73.8411 14.8691 73.5465 14.7129 73.1885 14.7129ZM75.8301 14.9717L77.207 14.415H77.3926V15.46C77.6237 15.0661 77.8548 14.791 78.0859 14.6348C78.3203 14.4753 78.5661 14.3955 78.8232 14.3955C79.2725 14.3955 79.6468 14.5713 79.9463 14.9229C80.3141 15.3525 80.498 15.9124 80.498 16.6025C80.498 17.374 80.2767 18.012 79.834 18.5166C79.4694 18.93 79.0104 19.1367 78.457 19.1367C78.2161 19.1367 78.0078 19.1025 77.832 19.0342C77.7018 18.9854 77.5553 18.8877 77.3926 18.7412V20.1035C77.3926 20.4095 77.4105 20.6032 77.4463 20.6846C77.4854 20.7692 77.5505 20.8359 77.6416 20.8848C77.736 20.9336 77.9053 20.958 78.1494 20.958V21.1387H75.8057V20.958H75.9277C76.1068 20.9613 76.2598 20.9271 76.3867 20.8555C76.4486 20.8197 76.4958 20.7611 76.5283 20.6797C76.5641 20.6016 76.582 20.3997 76.582 20.0742V15.8457C76.582 15.556 76.569 15.3721 76.543 15.2939C76.5169 15.2158 76.4746 15.1572 76.416 15.1182C76.3607 15.0791 76.2842 15.0596 76.1865 15.0596C76.1084 15.0596 76.0091 15.0824 75.8887 15.1279L75.8301 14.9717ZM77.3926 15.748V17.418C77.3926 17.7793 77.4072 18.0169 77.4365 18.1309C77.4821 18.3197 77.5928 18.4857 77.7686 18.6289C77.9476 18.7721 78.1722 18.8438 78.4424 18.8438C78.7679 18.8438 79.0316 18.7168 79.2334 18.4629C79.4971 18.1309 79.6289 17.6637 79.6289 17.0615C79.6289 16.3779 79.4792 15.8522 79.1797 15.4844C78.9714 15.2305 78.724 15.1035 78.4375 15.1035C78.2812 15.1035 78.1266 15.1426 77.9736 15.2207C77.8564 15.2793 77.6628 15.4551 77.3926 15.748ZM81.9043 16.2119C81.901 16.876 82.0622 17.3968 82.3877 17.7744C82.7132 18.152 83.0957 18.3408 83.5352 18.3408C83.8281 18.3408 84.082 18.2611 84.2969 18.1016C84.515 17.9388 84.6973 17.6621 84.8438 17.2715L84.9951 17.3691C84.9268 17.8151 84.7282 18.222 84.3994 18.5898C84.0706 18.9544 83.6589 19.1367 83.1641 19.1367C82.627 19.1367 82.1663 18.9284 81.7822 18.5117C81.4014 18.0918 81.2109 17.5286 81.2109 16.8223C81.2109 16.0573 81.4062 15.4616 81.7969 15.0352C82.1908 14.6055 82.6839 14.3906 83.2764 14.3906C83.7777 14.3906 84.1895 14.5566 84.5117 14.8887C84.834 15.2174 84.9951 15.6585 84.9951 16.2119H81.9043ZM81.9043 15.9287H83.9746C83.9583 15.6423 83.9242 15.4404 83.8721 15.3232C83.7907 15.141 83.6686 14.9977 83.5059 14.8936C83.3464 14.7894 83.1787 14.7373 83.0029 14.7373C82.7327 14.7373 82.4902 14.8431 82.2754 15.0547C82.0638 15.263 81.9401 15.5544 81.9043 15.9287ZM86.9043 14.3955V15.4014C87.2786 14.7308 87.6628 14.3955 88.0566 14.3955C88.2357 14.3955 88.3838 14.4508 88.501 14.5615C88.6182 14.6689 88.6768 14.7943 88.6768 14.9375C88.6768 15.0645 88.6344 15.1719 88.5498 15.2598C88.4652 15.3477 88.3643 15.3916 88.2471 15.3916C88.1331 15.3916 88.0046 15.3363 87.8613 15.2256C87.7214 15.1117 87.6172 15.0547 87.5488 15.0547C87.4902 15.0547 87.4268 15.0872 87.3584 15.1523C87.2119 15.2858 87.0605 15.5055 86.9043 15.8115V17.9551C86.9043 18.2025 86.9352 18.3896 86.9971 18.5166C87.0394 18.6045 87.1143 18.6777 87.2217 18.7363C87.3291 18.7949 87.4837 18.8242 87.6855 18.8242V19H85.3955V18.8242C85.6234 18.8242 85.7926 18.7884 85.9033 18.7168C85.9847 18.6647 86.0417 18.5817 86.0742 18.4678C86.0905 18.4124 86.0986 18.2546 86.0986 17.9941V16.2607C86.0986 15.7399 86.0872 15.4307 86.0645 15.333C86.0449 15.2321 86.0059 15.1589 85.9473 15.1133C85.8919 15.0677 85.8219 15.0449 85.7373 15.0449C85.6364 15.0449 85.5225 15.0693 85.3955 15.1182L85.3467 14.9424L86.6992 14.3955H86.9043Z" fill="white" fill-opacity="0.7"/>
</svg>
